<!--?xml version="1.0" encoding="utf-8"?-->
<!-- Generator: Adobe Illustrator 18.1.1, SVG Export Plug-In . SVG Version: 6.00 Build 0)  -->

<svg version="1.1" id="_x32_" xmlns="http://www.w3.org/2000/svg" xmlns:xlink="http://www.w3.org/1999/xlink" x="0px" y="0px" viewBox="0 0 512 512" style="width: 32px; height: 32px; opacity: 1;" xml:space="preserve">
<style type="text/css">
	.st0{fill:#4B4B4B;}
</style>
<g>
	<path class="st0" d="M279.69,211.102c4.272,0,7.734-2.553,7.734-5.696c0-3.149-3.463-5.702-7.734-5.702
		c-4.272,0-7.729,2.554-7.729,5.702C271.961,208.549,275.418,211.102,279.69,211.102z" style="fill: rgb(58, 171, 210);"></path>
	<path class="st0" d="M234.926,233.076c-4.268,0-7.728,2.547-7.728,5.696c0,3.149,3.46,5.696,7.728,5.696
		c4.272,0,7.734-2.546,7.734-5.696C242.66,235.623,239.198,233.076,234.926,233.076z" style="fill: rgb(58, 171, 210);"></path>
	<path class="st0" d="M188.538,270.512c-4.272,0-7.731,2.547-7.731,5.696c0,3.149,3.46,5.696,7.731,5.696
		c4.269,0,7.735-2.547,7.735-5.696C196.272,273.059,192.807,270.512,188.538,270.512z" style="fill: rgb(58, 171, 210);"></path>
	<path class="st0" d="M138.624,310.408c-4.272,0-7.734,3.03-7.734,6.768c0,3.732,3.463,6.768,7.734,6.768
		c4.266,0,7.729-3.036,7.729-6.768C146.353,313.438,142.89,310.408,138.624,310.408z" style="fill: rgb(58, 171, 210);"></path>
	<path class="st0" d="M504.287,213.887l0.508,0.251l-0.552-0.276c-2.017-1.022-4.219-1.524-6.383-1.518
		c-2.961-0.006-5.916,0.935-8.39,2.754L298.95,355.899v20.236l196.771-145.418v18.016c0,1.801-0.856,3.5-2.308,4.58l-214.11,158.673
		c-1.003,0.746-2.186,1.123-3.4,1.123c-0.784,0-1.565-0.188-2.312-0.514l0.013-0.038l-0.389-0.132
		c-1.847-0.985-3.014-2.917-3.014-5.018v-39.062c0-9.109,4.319-17.69,11.646-23.11l205.318-152.161
		c5.649-4.191,8.895-10.764,8.895-17.659c0-1.179-0.097-2.358-0.288-3.525c-1.324-8.117-7.057-14.816-14.876-17.376L265.936,84.383
		c-3.629-1.192-7.377-1.769-11.109-1.769c-7.496,0-14.908,2.352-21.118,6.887l0.003-0.006l-215.42,157.18l-0.047,0.032
		c-11.47,8.499-18.226,21.924-18.226,36.194v34.056c0,0.658-0.019,1.53-0.019,2.547c0,1.518,0.034,3.35,0.285,5.376
		c0.188,1.518,0.498,3.155,1.051,4.874c0.822,2.559,2.239,5.332,4.566,7.703c2.221,2.296,5.229,4.058,8.607,5.062l-0.006,0.018
		l253.005,85.136c2.7,1.123,5.551,1.712,8.396,1.712c4.623,0,9.234-1.461,13.092-4.322l214.106-158.673
		c5.596-4.146,8.898-10.702,8.898-17.658v-22.25C512,221.17,509.017,216.309,504.287,213.887z M393.75,143.204l-37.296,57.121
		l-44.879-35.423l80.989-22.086L393.75,143.204z M309.097,115.584l63.752,20.801l-68.572,18.693L309.097,115.584z M297.602,115.729
		l-4.943,40.497l-47.806-6.084c8.537-5.658,20.168-13.343,31.108-20.481c8.042-5.25,15.714-10.2,21.462-13.819L297.602,115.729z
		 M106.056,356.169l-86.547-29.125l-0.195-0.056c-1.044-0.3-1.424-0.595-1.678-0.815l-0.49-0.646
		c-0.238-0.44-0.502-1.211-0.658-2.284c-0.16-1.054-0.213-2.364-0.21-3.738c-0.003-0.816,0.012-1.656,0.012-2.547v-34.056
		c0-9.114,4.319-17.695,11.642-23.115l-0.065,0.044l215.439-157.18c3.39-2.478,7.427-3.763,11.52-3.763
		c2.029,0,4.074,0.326,6.062,0.966l26.713,8.719c-2.149,1.368-4.454,2.848-6.894,4.422c-22.48,14.503-54.901,36.113-54.91,36.126
		l-12.696,8.462l72.398,9.215L123.187,293.145l0.003,0.006c-10.78,8.042-17.134,20.694-17.134,34.15V356.169z M253.926,368.345
		v37.587l-136.95-46.093h0.471v-32.538c0-9.892,4.688-19.188,12.63-25.085l0.066-0.044l169.644-132.056l59.392,46.877l45.782-70.131
		l70.887,23.128c2.02,0.659,3.512,2.402,3.857,4.51l0.072,0.916c0,1.782-0.841,3.494-2.308,4.579L272.156,332.149
		C260.686,340.65,253.926,354.08,253.926,368.345z" style="fill: rgb(58, 171, 210);"></path>
</g>
</svg>
